<?xml version="1.0" standalone="no"?>
<!DOCTYPE svg PUBLIC "-//W3C//DTD SVG 20010904//EN"
 "http://www.w3.org/TR/2001/REC-SVG-20010904/DTD/svg10.dtd">
<svg version="1.0" xmlns="http://www.w3.org/2000/svg"
 width="200.000000pt" height="100.000000pt" viewBox="0 0 200.000000 100.000000"
 preserveAspectRatio="xMidYMid meet">

<g transform="translate(0.000000,100.000000) scale(0.100000,-0.100000)"
fill="#000000" stroke="none">
<path d="M687 798 l-147 -143 -1 -170 c0 -93 0 -227 0 -297 l1 -128 145 0 145
0 1 108 c1 59 1 165 0 236 l-2 129 103 104 103 103 -100 100 -100 100 -148
-142z"/>
<path d="M1180 497 l0 -437 140 0 140 0 1 93 c2 174 1 252 -1 382 l-2 130
-139 134 -139 135 0 -437z"/>
<path d="M1141 364 c0 -11 3 -14 6 -6 3 7 2 16 -1 19 -3 4 -6 -2 -5 -13z"/>
<path d="M900 359 c0 -5 5 -7 10 -4 6 3 10 8 10 11 0 2 -4 4 -10 4 -5 0 -10
-5 -10 -11z"/>
</g>
</svg>
